<svg aria-hidden="true" xmlns="http://www.w3.org/2000/svg">
  <defs>
    <symbol id="icon-bulb" viewBox="0 0 32 32">
      <path d="M18.723 19.994a5.783 5.783 0 0 0 3.1-2.047c.969-1.24 1.391-2.783 1.188-4.343s-1.006-2.945-2.26-3.896c-1.215-.922-2.724-1.324-4.249-1.133s-2.888.954-3.838 2.147a5.785 5.785 0 0 0-1.27 3.557c-.026 2.117-.74 4.177-2.009 5.801l-1.389 1.778a1.816 1.816 0 0 0 .313 2.547l1.33 1.039a1.816 1.816 0 0 0 2.547-.313l1.389-1.777c1.283-1.642 3.06-2.808 5.149-3.36zm-6.582-5.706a5.036 5.036 0 0 1 1.107-3.1c1.706-2.143 4.869-2.54 7.05-.884 1.094.831 1.794 2.036 1.97 3.397s-.191 2.705-1.036 3.786a5.034 5.034 0 0 1-2.702 1.784c-2.201.583-4.088 1.794-5.465 3.508l-3.007-2.349c1.316-1.735 2.054-3.91 2.082-6.141zm-3.4 7.831.186-.239 2.742 2.698-.073.093a.995.995 0 0 1-.126.133l-2.73-2.686zm.65-.832.209-.268 3.011 2.353-.479.613-2.742-2.698zm-.623 2.529a1.066 1.066 0 0 1-.396-1.01l2.31 2.273a1.065 1.065 0 0 1-.584-.223l-1.33-1.039z"/>
      <path d="M13.966 12.522c.098-.172.21-.339.335-.496a.374.374 0 1 0-.585-.465 4.615 4.615 0 0 0-.401.594.375.375 0 0 0 .651.369zM12.203 18.353a.373.373 0 0 0 .582-.168c.449-1.248.685-2.554.702-3.88a3.82 3.82 0 0 1 .064-.651.375.375 0 0 0-.735-.139 4.502 4.502 0 0 0-.077.78 11.11 11.11 0 0 1-.658 3.636.374.374 0 0 0 .121.421zM19.534 17.784a.373.373 0 0 0-.508-.148 3.748 3.748 0 0 1-.839.334.374.374 0 1 0 .191.723 4.485 4.485 0 0 0 1.007-.401.373.373 0 0 0 .148-.508zM19.528 11.409a3.742 3.742 0 0 1 .415 5.515.375.375 0 0 0 .016.529l.026.023a.373.373 0 0 0 .502-.039 4.492 4.492 0 0 0-.5-6.617.375.375 0 0 0-.461.589zM21.214 9.251a.375.375 0 0 0 .525-.064l1.289-1.65a.375.375 0 0 0-.589-.461l-1.289 1.65a.375.375 0 0 0 .064.525zM17.778 7.504a.374.374 0 1 0 .74.104l.291-2.073a.373.373 0 1 0-.74-.104l-.291 2.073zM20.908 22.622l-.784-1.941a.374.374 0 1 0-.694.28l.784 1.941a.373.373 0 0 0 .487.206.374.374 0 0 0 .207-.487zM13.463 6.192l.784 1.941a.373.373 0 0 0 .487.206.375.375 0 0 0 .207-.487l-.784-1.941a.374.374 0 1 0-.694.28zM24.517 19.66l-1.65-1.289a.375.375 0 0 0-.461.589l1.65 1.289a.375.375 0 0 0 .461-.589zM12.029 10.379a.375.375 0 0 0-.064-.525l-1.65-1.289a.375.375 0 0 0-.461.589l1.65 1.289a.375.375 0 0 0 .525-.064zM23.807 15.665a.37.37 0 0 0 .178.075l2.073.291a.373.373 0 1 0 .104-.74L24.089 15a.373.373 0 0 0-.282.665zM10.387 13.074l-2.073-.291a.373.373 0 1 0-.104.74l2.073.291a.373.373 0 1 0 .104-.74zM23.253 11.956a.373.373 0 0 0 .487.206l1.941-.784a.374.374 0 1 0-.28-.694l-1.941.784a.374.374 0 0 0-.207.487z"/>
    </symbol>
  </defs>
</svg>